<svg width="49" height="48" viewBox="0 0 49 48" fill="none" xmlns="http://www.w3.org/2000/svg">
<g filter="url(#filter0_d_2198_374)">
<rect x="2.33337" y="1" width="44" height="44" rx="8" fill="white" shape-rendering="crispEdges"/>
<rect x="2.83337" y="1.5" width="43" height="43" rx="7.5" stroke="#EAECF0" shape-rendering="crispEdges"/>
<path d="M24.3334 5.5C14.681 5.5 6.83337 13.3477 6.83337 23C6.83337 32.6523 14.681 40.5 24.3334 40.5C33.9857 40.5 41.8334 32.6523 41.8334 23C41.8334 13.3477 33.9857 5.5 24.3334 5.5Z" fill="url(#paint0_radial_2198_374)"/>
<path d="M29.9838 22.9264C27.5814 22.9264 25.6341 24.9015 25.6341 27.338C25.6341 29.7747 27.5814 31.75 29.9838 31.75C32.386 31.75 34.3334 29.7747 34.3334 27.338C34.3334 24.9015 32.386 22.9264 29.9838 22.9264ZM18.683 22.9267C16.2808 22.9267 14.3334 24.9015 14.3334 27.3383C14.3334 29.7747 16.2808 31.75 18.683 31.75C21.0853 31.75 23.0329 29.7747 23.0329 27.3383C23.0329 24.9015 21.0853 22.9267 18.683 22.9267ZM28.6829 17.4116C28.6829 19.8482 26.7357 21.8238 24.3335 21.8238C21.9311 21.8238 19.9838 19.8482 19.9838 17.4116C19.9838 14.9753 21.9311 13 24.3335 13C26.7357 13 28.6829 14.9753 28.6829 17.4116Z" fill="white"/>
</g>
<defs>
<filter id="filter0_d_2198_374" x="0.333374" y="0" width="48" height="48" filterUnits="userSpaceOnUse" color-interpolation-filters="sRGB">
<feFlood flood-opacity="0" result="BackgroundImageFix"/>
<feColorMatrix in="SourceAlpha" type="matrix" values="0 0 0 0 0 0 0 0 0 0 0 0 0 0 0 0 0 0 127 0" result="hardAlpha"/>
<feOffset dy="1"/>
<feGaussianBlur stdDeviation="1"/>
<feComposite in2="hardAlpha" operator="out"/>
<feColorMatrix type="matrix" values="0 0 0 0 0.0627451 0 0 0 0 0.0941176 0 0 0 0 0.156863 0 0 0 0.05 0"/>
<feBlend mode="normal" in2="BackgroundImageFix" result="effect1_dropShadow_2198_374"/>
<feBlend mode="normal" in="SourceGraphic" in2="effect1_dropShadow_2198_374" result="shape"/>
</filter>
<radialGradient id="paint0_radial_2198_374" cx="0" cy="0" r="1" gradientUnits="userSpaceOnUse" gradientTransform="translate(24.3334 24.6283) scale(23.1922)">
<stop stop-color="#FFB900"/>
<stop offset="0.6" stop-color="#F95D8F"/>
<stop offset="0.9991" stop-color="#F95353"/>
</radialGradient>
</defs>
</svg>
