<svg xmlns="http://www.w3.org/2000/svg" width="48" height="48" viewBox="0 0 48 48" fill="none">
  <g clip-path="url(#clip0_2040_24746)">
    <mask id="mask0_2040_24746" style="mask-type:luminance" maskUnits="userSpaceOnUse" x="0" y="0" width="48" height="48">
      <path d="M47.5 0.97998H0.5V47.98H47.5V0.97998Z" fill="white"/>
    </mask>
    <g mask="url(#mask0_2040_24746)">
      <path d="M31.0148 39.957C30.5115 39.9162 30.0049 39.8235 29.5014 39.6754C27.0528 38.9548 25.2522 37.091 24.5101 34.8371C23.3138 35.1047 22.0348 35.0811 20.7755 34.7105C16.8161 33.5454 14.551 29.3911 15.7161 25.4317C16.283 23.5054 17.5574 21.9801 19.1726 21.0558C18.3154 19.4039 18.0703 17.4314 18.6372 15.505C18.7825 15.0112 18.9743 14.5437 19.2065 14.106C11.2497 13.1195 3.51986 18.006 1.18245 25.9488C-1.41675 34.7813 3.63632 44.0485 12.4688 46.6478C19.6244 48.7535 27.0652 45.8368 31.0148 39.957Z" fill="#CC2B02"/>
      <path d="M30.9916 41.3694C41.8687 41.3694 50.6863 32.5518 50.6863 21.6747C50.6863 10.7976 41.8687 1.97998 30.9916 1.97998C20.1145 1.97998 11.2969 10.7976 11.2969 21.6747C11.2969 32.5518 20.1145 41.3694 30.9916 41.3694Z" fill="white"/>
      <path fill-rule="evenodd" clip-rule="evenodd" d="M46.8936 26.6903C46.3994 26.7932 45.8873 26.8473 45.3626 26.8473C42.809 26.8473 40.5545 25.5665 39.2066 23.6122C38.0032 24.441 36.5448 24.9262 34.9731 24.9262C30.8458 24.9262 27.5 21.5804 27.5 17.4531C27.5 15.1902 28.5058 13.1622 30.0947 11.7918C28.867 10.4602 28.1171 8.68141 28.1171 6.72745C28.1171 6.21234 28.1692 5.70941 28.2684 5.22363C20.3565 6.52332 14.3203 13.3934 14.3203 21.6732C14.3203 30.8802 21.7841 38.344 30.9911 38.344C38.4498 38.344 44.7644 33.4456 46.8936 26.6903Z" fill="#3D7FFC"/>
      <path d="M35.0156 19.3751C35.968 19.3751 36.7401 18.603 36.7401 17.6506C36.7401 16.6981 35.968 15.926 35.0156 15.926C34.0631 15.926 33.291 16.6981 33.291 17.6506C33.291 18.603 34.0631 19.3751 35.0156 19.3751Z" fill="#3D7FFC"/>
      <path d="M44.2125 22.2499C45.4824 22.2499 46.5119 21.2205 46.5119 19.9505C46.5119 18.6806 45.4824 17.6511 44.2125 17.6511C42.9426 17.6511 41.9131 18.6806 41.9131 19.9505C41.9131 21.2205 42.9426 22.2499 44.2125 22.2499Z" fill="#3D7FFC"/>
      <path d="M34.7994 9.5788C36.0693 9.5788 37.0988 8.54932 37.0988 7.27939C37.0988 6.00946 36.0693 4.97998 34.7994 4.97998C33.5295 4.97998 32.5 6.00946 32.5 7.27939C32.5 8.54932 33.5295 9.5788 34.7994 9.5788Z" fill="#3D7FFC"/>
      <path d="M40.9371 13.8542C41.7308 13.8542 42.3743 13.2108 42.3743 12.4171C42.3743 11.6234 41.7308 10.98 40.9371 10.98C40.1434 10.98 39.5 11.6234 39.5 12.4171C39.5 13.2108 40.1434 13.8542 40.9371 13.8542Z" fill="#3D7FFC"/>
      <path d="M21.2184 19.3757C22.4883 19.3757 23.5178 18.3462 23.5178 17.0763C23.5178 15.8063 22.4883 14.7769 21.2184 14.7769C19.9484 14.7769 18.9189 15.8063 18.9189 17.0763C18.9189 18.3462 19.9484 19.3757 21.2184 19.3757Z" fill="white"/>
      <path d="M10.7994 41.5788C12.0693 41.5788 13.0988 40.5493 13.0988 39.2794C13.0988 38.0095 12.0693 36.98 10.7994 36.98C9.52948 36.98 8.5 38.0095 8.5 39.2794C8.5 40.5493 9.52948 41.5788 10.7994 41.5788Z" fill="white"/>
      <path d="M36.7398 33.1716C38.0098 33.1716 39.0392 32.1421 39.0392 30.8722C39.0392 29.6022 38.0098 28.5728 36.7398 28.5728C35.4699 28.5728 34.4404 29.6022 34.4404 30.8722C34.4404 32.1421 35.4699 33.1716 36.7398 33.1716Z" fill="white"/>
      <path d="M26.3929 26.2735C27.0278 26.2735 27.5426 25.7588 27.5426 25.1238C27.5426 24.4889 27.0278 23.9741 26.3929 23.9741C25.7579 23.9741 25.2432 24.4889 25.2432 25.1238C25.2432 25.7588 25.7579 26.2735 26.3929 26.2735Z" fill="white"/>
      <path d="M27.5423 33.1717C28.1773 33.1717 28.692 32.657 28.692 32.022C28.692 31.3871 28.1773 30.8723 27.5423 30.8723C26.9073 30.8723 26.3926 31.3871 26.3926 32.022C26.3926 32.657 26.9073 33.1717 27.5423 33.1717Z" fill="white"/>
      <path d="M20.6497 43.2794C21.2847 43.2794 21.7994 42.7647 21.7994 42.1297C21.7994 41.4947 21.2847 40.98 20.6497 40.98C20.0147 40.98 19.5 41.4947 19.5 42.1297C19.5 42.7647 20.0147 43.2794 20.6497 43.2794Z" fill="#3D7FFC"/>
      <path d="M18.9192 26.2735C19.5542 26.2735 20.069 25.7588 20.069 25.1238C20.069 24.4889 19.5542 23.9741 18.9192 23.9741C18.2843 23.9741 17.7695 24.4889 17.7695 25.1238C17.7695 25.7588 18.2843 26.2735 18.9192 26.2735Z" fill="#3D7FFC"/>
      <path d="M4.64971 27.2794C5.28468 27.2794 5.79942 26.7647 5.79942 26.1297C5.79942 25.4947 5.28468 24.98 4.64971 24.98C4.01474 24.98 3.5 25.4947 3.5 26.1297C3.5 26.7647 4.01474 27.2794 4.64971 27.2794Z" fill="#3D7FFC"/>
      <path d="M9.64971 32.2794C10.2847 32.2794 10.7994 31.7647 10.7994 31.1297C10.7994 30.4947 10.2847 29.98 9.64971 29.98C9.01474 29.98 8.5 30.4947 8.5 31.1297C8.5 31.7647 9.01474 32.2794 9.64971 32.2794Z" fill="white"/>
    </g>
  </g>
  <defs>
    <clipPath id="clip0_2040_24746">
      <rect width="48" height="47" fill="white" transform="translate(0 0.97998)"/>
    </clipPath>
  </defs>
</svg>