<svg width="48" height="49" viewBox="0 0 48 49" fill="none" xmlns="http://www.w3.org/2000/svg">
<path d="M0 24.98C0 11.7251 10.7452 0.97998 24 0.97998C37.2548 0.97998 48 11.7251 48 24.98C48 38.2348 37.2548 48.98 24 48.98C10.7452 48.98 0 38.2348 0 24.98Z" fill="#FDEAD7"/>
<path d="M23 15.98H19.8C18.1198 15.98 17.2798 15.98 16.638 16.307C16.0735 16.5946 15.6146 17.0535 15.327 17.618C15 18.2597 15 19.0998 15 20.78V29.18C15 30.8601 15 31.7002 15.327 32.342C15.6146 32.9064 16.0735 33.3654 16.638 33.653C17.2798 33.98 18.1198 33.98 19.8 33.98H28.2C29.8802 33.98 30.7202 33.98 31.362 33.653C31.9265 33.3654 32.3854 32.9064 32.673 32.342C33 31.7002 33 30.8601 33 29.18V25.98M24 20.98H28V24.98M27.5 16.48V14.98M31.4393 17.5406L32.5 16.48M32.5103 21.48H34.0103M15 26.3271C15.6519 26.4278 16.3199 26.48 17 26.48C21.3864 26.48 25.2653 24.3076 27.6197 20.98" stroke="#FF4000" stroke-width="2" stroke-linecap="round" stroke-linejoin="round"/>
</svg>
