<svg xmlns="http://www.w3.org/2000/svg" width="48" height="48" viewBox="0 0 48 48" fill="none">
  <g clip-path="url(#clip0_2040_24610)">
    <mask id="mask0_2040_24610" style="mask-type:luminance" maskUnits="userSpaceOnUse" x="0" y="0" width="48" height="48">
      <path d="M47.5 0.97998H0.5V47.98H47.5V0.97998Z" fill="white"/>
    </mask>
    <g mask="url(#mask0_2040_24610)">
      <mask id="mask1_2040_24610" style="mask-type:luminance" maskUnits="userSpaceOnUse" x="0" y="4" width="40" height="45">
        <path d="M39.9155 4.97998H0.5V48.3687H39.9155V4.97998Z" fill="white"/>
      </mask>
      <g mask="url(#mask1_2040_24610)">
        <path d="M38.1065 39.3329C37.112 39.3329 36.2984 38.5193 36.2984 37.5249V24.6877C36.2984 15.8102 29.0843 8.59608 20.2068 8.59608C11.3292 8.59608 4.11512 15.8102 4.11512 24.6877V36.3316C4.11512 37.326 3.3015 38.1396 2.30707 38.1396C1.31265 38.1396 0.499023 37.326 0.499023 36.3316V24.6877C0.499023 13.8214 9.34039 4.97998 20.2068 4.97998C31.0731 4.97998 39.9145 13.8214 39.9145 24.6877V37.5249C39.9145 38.5193 39.1009 39.3329 38.1065 39.3329Z" fill="#FF4000"/>
        <path d="M26.446 48.2988C18.7076 48.2988 12.4336 42.0068 12.4336 34.2864V24.7038C12.4336 20.4187 15.9232 16.9292 20.2083 16.9292C24.4933 16.9292 27.9829 20.4187 27.9829 24.7038V33.9248C27.9829 34.9193 27.1692 35.7329 26.1748 35.7329C25.1804 35.7329 24.3668 34.9193 24.3668 33.9248V24.7038C24.3668 22.4075 22.5045 20.5453 20.2083 20.5453C17.912 20.5453 16.0497 22.4075 16.0497 24.7038V34.2864C16.0497 40.018 20.7145 44.6827 26.446 44.6827C27.4404 44.6827 28.2541 45.4963 28.2541 46.4908C28.2541 47.4852 27.4585 48.2988 26.446 48.2988Z" fill="#FF4000"/>
        <path d="M10.9879 47.8129C8.07694 44.7754 6.46777 40.7796 6.46777 36.5669V24.688C6.46777 17.1122 12.6513 10.9468 20.2632 10.9468C27.8751 10.9468 33.9501 17.0761 33.9501 24.6337V33.7282C33.9501 38.1218 30.3883 41.6836 25.9947 41.6836C21.8 41.6836 18.4009 38.2664 18.4009 34.0898V25.2304C18.4009 24.236 19.2145 23.4223 20.209 23.4223C21.2034 23.4223 22.017 24.236 22.017 25.2304V34.0898C22.017 36.2776 23.807 38.0675 25.9947 38.0675C28.3994 38.0675 30.334 36.1329 30.334 33.7282V24.6337C30.334 19.0649 25.832 14.5629 20.2632 14.5629C14.6944 14.5629 10.0839 19.1011 10.0839 24.688V36.5849C10.0839 39.8575 11.3314 42.9674 13.5915 45.3178C14.2785 46.041 14.2605 47.1801 13.5372 47.8672C12.814 48.5542 11.675 48.5361 10.9879 47.8129Z" fill="#3D7FFC"/>
      </g>
      <path d="M38.5002 20.0387C44.0555 20.0387 48.559 15.5353 48.559 9.97994C48.559 4.42462 44.0555 -0.0788574 38.5002 -0.0788574C32.9449 -0.0788574 28.4414 4.42462 28.4414 9.97994C28.4414 15.5353 32.9449 20.0387 38.5002 20.0387Z" fill="#3D7FFC" stroke="white" stroke-width="2.11765"/>
      <path fill-rule="evenodd" clip-rule="evenodd" d="M37.3596 11.0072L35.1291 8.77676L33.5 10.4058L37.3596 14.2654L38.9886 12.6363L44.0166 7.60834L42.3875 5.97925L37.3596 11.0072Z" fill="white"/>
    </g>
  </g>
  <defs>
    <clipPath id="clip0_2040_24610">
      <rect width="48" height="47" fill="white" transform="translate(0 0.97998)"/>
    </clipPath>
  </defs>
</svg>