<svg width="48" height="48" viewBox="0 0 48 48" fill="none" xmlns="http://www.w3.org/2000/svg">
<g filter="url(#filter0_d_2198_3318)">
<rect x="2" y="1" width="44" height="44" rx="8" fill="white" shape-rendering="crispEdges"/>
<rect x="2.5" y="1.5" width="43" height="43" rx="7.5" stroke="#EAECF0" shape-rendering="crispEdges"/>
<path d="M41.5017 23.3887C41.5017 21.9498 41.3826 20.8998 41.1247 19.8109H24.3589V26.3053H34.2001C34.0017 27.9192 32.9303 30.3498 30.5493 31.983L30.5159 32.2005L35.817 36.225L36.1843 36.2609C39.5572 33.2081 41.5017 28.7164 41.5017 23.3887Z" fill="#4285F4"/>
<path d="M24.3578 40.5C29.1791 40.5 33.2267 38.9443 36.1831 36.261L30.5482 31.9831C29.0403 33.0137 27.0164 33.7331 24.3578 33.7331C19.6356 33.7331 15.6277 30.6804 14.199 26.4609L13.9896 26.4784L8.47748 30.659L8.4054 30.8554C11.3419 36.572 17.3736 40.5 24.3578 40.5Z" fill="#34A853"/>
<path d="M14.2 26.4611C13.8231 25.3722 13.6049 24.2054 13.6049 23C13.6049 21.7943 13.8231 20.6277 14.1802 19.5388L14.1702 19.3069L8.58903 15.0592L8.40642 15.1443C7.19616 17.5166 6.50171 20.1805 6.50171 23C6.50171 25.8194 7.19616 28.4832 8.40642 30.8554L14.2 26.4611Z" fill="#FBBC05"/>
<path d="M24.3578 12.2666C27.711 12.2666 29.9728 13.6861 31.2626 14.8722L36.3022 10.05C33.2071 7.23056 29.1792 5.5 24.3578 5.5C17.3736 5.5 11.3419 9.42775 8.4054 15.1444L14.1792 19.5389C15.6277 15.3194 19.6356 12.2666 24.3578 12.2666Z" fill="#EB4335"/>
</g>
<defs>
<filter id="filter0_d_2198_3318" x="0" y="0" width="48" height="48" filterUnits="userSpaceOnUse" color-interpolation-filters="sRGB">
<feFlood flood-opacity="0" result="BackgroundImageFix"/>
<feColorMatrix in="SourceAlpha" type="matrix" values="0 0 0 0 0 0 0 0 0 0 0 0 0 0 0 0 0 0 127 0" result="hardAlpha"/>
<feOffset dy="1"/>
<feGaussianBlur stdDeviation="1"/>
<feComposite in2="hardAlpha" operator="out"/>
<feColorMatrix type="matrix" values="0 0 0 0 0.0627451 0 0 0 0 0.0941176 0 0 0 0 0.156863 0 0 0 0.05 0"/>
<feBlend mode="normal" in2="BackgroundImageFix" result="effect1_dropShadow_2198_3318"/>
<feBlend mode="normal" in="SourceGraphic" in2="effect1_dropShadow_2198_3318" result="shape"/>
</filter>
</defs>
</svg>
