<svg xmlns="http://www.w3.org/2000/svg" width="48" height="48" viewBox="0 0 48 48" fill="none">
  <g clip-path="url(#clip0_2040_24645)">
    <mask id="mask0_2040_24645" style="mask-type:luminance" maskUnits="userSpaceOnUse" x="0" y="0" width="48" height="48">
      <path d="M47.5 0.97998H0.5V47.98H47.5V0.97998Z" fill="white"/>
    </mask>
    <g mask="url(#mask0_2040_24645)">
      <mask id="mask1_2040_24645" style="mask-type:luminance" maskUnits="userSpaceOnUse" x="0" y="0" width="48" height="48">
        <path d="M47.5 0.97998H0.5V47.98H47.5V0.97998Z" fill="white"/>
      </mask>
      <g mask="url(#mask1_2040_24645)">
        <path d="M45.8627 0.97998H15.9949C15.2168 0.97998 14.5859 1.6108 14.5859 2.38896V21.571C14.5859 22.3492 15.2168 22.98 15.9949 22.98H45.8627C46.6408 22.98 47.2716 22.3492 47.2716 21.571V2.38896C47.2716 1.6108 46.6408 0.97998 45.8627 0.97998Z" fill="#96B7F6"/>
        <path d="M19.8662 3.80468C19.8662 4.32131 19.44 4.74754 18.9233 4.74754C18.4067 4.74754 17.9805 4.32131 17.9805 3.80468C17.9805 3.28805 18.4067 2.86182 18.9233 2.86182C19.44 2.86182 19.8662 3.28805 19.8662 3.80468Z" fill="#F8F8F8"/>
        <path d="M22.9462 3.80468C22.9462 4.32131 22.52 4.74754 22.0033 4.74754C21.4867 4.74754 21.0605 4.32131 21.0605 3.80468C21.0605 3.28805 21.4867 2.86182 22.0033 2.86182C22.5329 2.86182 22.9462 3.28805 22.9462 3.80468Z" fill="#F8F8F8"/>
        <path d="M26.0273 3.80468C26.0273 4.32131 25.6011 4.74754 25.0845 4.74754C24.5678 4.74754 24.1416 4.32131 24.1416 3.80468C24.1416 3.28805 24.5678 2.86182 25.0845 2.86182C25.6011 2.86182 26.0273 3.28805 26.0273 3.80468Z" fill="#F8F8F8"/>
        <path d="M29.0244 7.59187C29.0244 7.35668 29.215 7.16602 29.4502 7.16602H44.5567C44.7919 7.16602 44.9826 7.35668 44.9826 7.59187V12.8195C44.9826 13.0547 44.7919 13.2454 44.5567 13.2454H29.4502C29.215 13.2454 29.0244 13.0547 29.0244 12.8195V7.59187Z" fill="#F8F8F8"/>
        <path d="M29.0244 15.191C29.0244 14.9558 29.215 14.7651 29.4502 14.7651H44.5567C44.7919 14.7651 44.9826 14.9558 44.9826 15.191V20.4186C44.9826 20.6538 44.7919 20.8444 44.5567 20.8444H29.4502C29.215 20.8444 29.0244 20.6538 29.0244 20.4186V15.191Z" fill="#F8F8F8"/>
        <path d="M16.8662 7.59187C16.8662 7.35668 17.0568 7.16602 17.292 7.16602H27.0791C27.3143 7.16602 27.505 7.35668 27.505 7.59187V20.4187C27.505 20.6539 27.3143 20.8445 27.0791 20.8445H17.292C17.0568 20.8445 16.8662 20.6539 16.8662 20.4187V7.59187Z" fill="#F8F8F8"/>
        <path d="M34.2499 10.98H7.7501C7.05969 10.98 6.5 11.5397 6.5 12.2301V29.2491C6.5 29.9395 7.05969 30.4992 7.7501 30.4992H34.2499C34.9403 30.4992 35.5 29.9395 35.5 29.2491V12.2301C35.5 11.5397 34.9403 10.98 34.2499 10.98Z" fill="#C6DBFF"/>
        <path d="M11.1848 13.4857C11.1848 13.9441 10.8067 14.3223 10.3483 14.3223C9.88988 14.3223 9.51172 13.9441 9.51172 13.4857C9.51172 13.0274 9.88988 12.6492 10.3483 12.6492C10.8067 12.6492 11.1848 13.0274 11.1848 13.4857Z" fill="#F8F8F8"/>
        <path d="M13.9181 13.4857C13.9181 13.9441 13.54 14.3223 13.0816 14.3223C12.6232 14.3223 12.2451 13.9441 12.2451 13.4857C12.2451 13.0274 12.6232 12.6492 13.0816 12.6492C13.5514 12.6492 13.9181 13.0274 13.9181 13.4857Z" fill="#F8F8F8"/>
        <path d="M16.6515 13.4857C16.6515 13.9441 16.2734 14.3223 15.815 14.3223C15.3566 14.3223 14.9785 13.9441 14.9785 13.4857C14.9785 13.0274 15.3566 12.6492 15.815 12.6492C16.2734 12.6492 16.6515 13.0274 16.6515 13.4857Z" fill="#F8F8F8"/>
        <path d="M19.3105 16.8463C19.3105 16.6377 19.4797 16.4685 19.6884 16.4685H33.0914C33.3001 16.4685 33.4693 16.6377 33.4693 16.8463V21.4845C33.4693 21.6931 33.3001 21.8623 33.0914 21.8623H19.6884C19.4797 21.8623 19.3105 21.6931 19.3105 21.4845V16.8463Z" fill="#F8F8F8"/>
        <path d="M19.3105 23.5885C19.3105 23.3798 19.4797 23.2107 19.6884 23.2107H33.0914C33.3001 23.2107 33.4693 23.3798 33.4693 23.5885V28.2266C33.4693 28.4353 33.3001 28.6045 33.0914 28.6045H19.6884C19.4797 28.6045 19.3105 28.4353 19.3105 28.2266V23.5885Z" fill="#F8F8F8"/>
        <path d="M8.52246 16.8463C8.52246 16.6377 8.69162 16.4685 8.90029 16.4685H17.5838C17.7924 16.4685 17.9616 16.6377 17.9616 16.8463V28.2267C17.9616 28.4354 17.7924 28.6045 17.5838 28.6045H8.90029C8.69162 28.6045 8.52246 28.4354 8.52246 28.2267V16.8463Z" fill="#F8F8F8"/>
        <path d="M25.2467 24.98H3.52472C2.95878 24.98 2.5 25.4388 2.5 26.0047V39.9553C2.5 40.5212 2.95878 40.98 3.52472 40.98H25.2467C25.8126 40.98 26.2714 40.5212 26.2714 39.9553V26.0047C26.2714 25.4388 25.8126 24.98 25.2467 24.98Z" fill="#9FC0FF"/>
        <path d="M6.3392 27.0346C6.3392 27.4104 6.02921 27.7203 5.65348 27.7203C5.27775 27.7203 4.96777 27.4104 4.96777 27.0346C4.96777 26.6589 5.27775 26.3489 5.65348 26.3489C6.02921 26.3489 6.3392 26.6589 6.3392 27.0346Z" fill="#F8F8F8"/>
        <path d="M8.57944 27.0346C8.57944 27.4104 8.26946 27.7203 7.89373 27.7203C7.51799 27.7203 7.20801 27.4104 7.20801 27.0346C7.20801 26.6589 7.51799 26.3489 7.89373 26.3489C8.27885 26.3489 8.57944 26.6589 8.57944 27.0346Z" fill="#F8F8F8"/>
        <path d="M10.8197 27.0346C10.8197 27.4104 10.5097 27.7203 10.1339 27.7203C9.75822 27.7203 9.44824 27.4104 9.44824 27.0346C9.44824 26.6589 9.75822 26.3489 10.1339 26.3489C10.5097 26.3489 10.8197 26.6589 10.8197 27.0346Z" fill="#F8F8F8"/>
        <path d="M13.001 29.7886C13.001 29.6175 13.1396 29.4788 13.3107 29.4788H24.2972C24.4683 29.4788 24.6069 29.6175 24.6069 29.7886V33.5905C24.6069 33.7615 24.4683 33.9002 24.2972 33.9002H13.3107C13.1396 33.9002 13.001 33.7615 13.001 33.5905V29.7886Z" fill="#F8F8F8"/>
        <path d="M13.001 35.3153C13.001 35.1443 13.1396 35.0056 13.3107 35.0056H24.2972C24.4683 35.0056 24.6069 35.1443 24.6069 35.3153V39.1172C24.6069 39.2883 24.4683 39.4269 24.2972 39.4269H13.3107C13.1396 39.4269 13.001 39.2883 13.001 39.1172V35.3153Z" fill="#F8F8F8"/>
        <path d="M4.1582 29.7886C4.1582 29.6175 4.29686 29.4788 4.46791 29.4788H11.5858C11.7569 29.4788 11.8955 29.6175 11.8955 29.7886V39.1171C11.8955 39.2882 11.7569 39.4268 11.5858 39.4268H4.46791C4.29686 39.4268 4.1582 39.2882 4.1582 39.1171V29.7886Z" fill="#F8F8F8"/>
        <path d="M33.48 30.36H34.48V29.36C34.48 28.2768 34.9136 27.2307 35.6872 26.4571C36.4607 25.6835 37.5068 25.25 38.59 25.25C39.6733 25.25 40.7194 25.6835 41.4929 26.4571L41.4966 26.4608C42.2645 27.2207 42.7 28.2738 42.7 29.36V34.01H29.5H28.5V35.01V48.64V49.64H29.5H47.67H48.67V48.64V35.01V34.01H47.67H46.97V29.36C46.97 27.1329 46.0834 25.0105 44.5197 23.4355C42.9488 21.8532 40.812 20.98 38.59 20.98C36.3644 20.98 34.2316 21.8656 32.6555 23.4303C31.0732 25.0012 30.2 27.1381 30.2 29.36V30.36H31.2H33.48Z" fill="#E04F16" stroke="#F8F8F8" stroke-width="2"/>
        <path d="M38.5 43.98C39.6046 43.98 40.5 43.0845 40.5 41.98C40.5 40.8754 39.6046 39.98 38.5 39.98C37.3954 39.98 36.5 40.8754 36.5 41.98C36.5 43.0845 37.3954 43.98 38.5 43.98Z" fill="#F8F8F8"/>
      </g>
    </g>
  </g>
  <defs>
    <clipPath id="clip0_2040_24645">
      <rect width="48" height="47" fill="white" transform="translate(0 0.97998)"/>
    </clipPath>
  </defs>
</svg>