<svg width="24" height="26" viewBox="0 0 24 26" fill="none" xmlns="http://www.w3.org/2000/svg">
<g clip-path="url(#clip0_1862_30434)">
<path d="M0.511602 12.8556C0.511039 14.8878 1.04204 16.8721 2.05173 18.6211L0.415039 24.5969L6.53054 22.9934C8.22201 23.9142 10.1172 24.3967 12.043 24.3969H12.0481C18.4058 24.3969 23.581 19.2235 23.5838 12.8647C23.585 9.78341 22.3861 6.88597 20.2079 4.7061C18.0301 2.52641 15.1337 1.32538 12.0476 1.32397C5.68923 1.32397 0.51432 6.4971 0.511695 12.8556" fill="url(#paint0_linear_1862_30434)"/>
<path d="M0.100313 12.8515C0.0996563 14.9568 0.649687 17.0121 1.69537 18.8237L0 25.0138L6.33478 23.3528C8.08022 24.3045 10.0454 24.8062 12.0451 24.807H12.0502C18.636 24.807 23.9972 19.4475 24 12.8611C24.0011 9.66906 22.7591 6.66747 20.5031 4.4095C18.2468 2.15181 15.2468 0.907563 12.0502 0.90625C5.46337 0.90625 0.102938 6.265 0.100313 12.8515ZM3.87291 18.5118L3.63637 18.1363C2.64206 16.5553 2.11725 14.7283 2.118 12.8523C2.12006 7.37772 6.57544 2.92375 12.054 2.92375C14.7071 2.92488 17.2005 3.95913 19.0759 5.83563C20.9512 7.71231 21.9831 10.207 21.9824 12.8603C21.98 18.3348 17.5245 22.7894 12.0502 22.7894H12.0463C10.2638 22.7884 8.51569 22.3097 6.99113 21.4052L6.62831 21.19L2.86912 22.1756L3.87291 18.5118Z" fill="url(#paint1_linear_1862_30434)"/>
<path d="M9.06383 7.85806C8.84014 7.3609 8.60473 7.35087 8.39202 7.34215C8.21783 7.33465 8.0187 7.33521 7.81977 7.33521C7.62064 7.33521 7.29711 7.41012 7.02364 7.70871C6.74989 8.00759 5.97852 8.72984 5.97852 10.1988C5.97852 11.6678 7.04848 13.0875 7.19764 13.2869C7.34698 13.486 9.26323 16.597 12.2981 17.7938C14.8204 18.7884 15.3336 18.5906 15.881 18.5407C16.4285 18.491 17.6477 17.8186 17.8964 17.1214C18.1453 16.4243 18.1453 15.8267 18.0707 15.7018C17.996 15.5774 17.7969 15.5027 17.4983 15.3535C17.1997 15.2042 15.7317 14.4818 15.458 14.3821C15.1843 14.2826 14.9853 14.2329 14.7861 14.5318C14.587 14.8303 14.0152 15.5027 13.841 15.7018C13.6669 15.9014 13.4926 15.9263 13.1941 15.7769C12.8953 15.6271 11.9337 15.3122 10.7929 14.2951C9.90523 13.5037 9.30598 12.5263 9.1318 12.2274C8.95761 11.9289 9.11314 11.7671 9.26286 11.6183C9.39702 11.4845 9.56155 11.2696 9.71098 11.0953C9.85986 10.921 9.90955 10.7966 10.0091 10.5974C10.1088 10.3981 10.0589 10.2237 9.98436 10.0744C9.90955 9.92506 9.32933 8.4484 9.06383 7.85806Z" fill="white"/>
</g>
<defs>
<linearGradient id="paint0_linear_1862_30434" x1="1158.85" y1="2328.62" x2="1158.85" y2="1.32397" gradientUnits="userSpaceOnUse">
<stop stop-color="#1FAF38"/>
<stop offset="1" stop-color="#60D669"/>
</linearGradient>
<linearGradient id="paint1_linear_1862_30434" x1="1200" y1="2411.66" x2="1200" y2="0.90625" gradientUnits="userSpaceOnUse">
<stop stop-color="#F9F9F9"/>
<stop offset="1" stop-color="white"/>
</linearGradient>
<clipPath id="clip0_1862_30434">
<rect width="24" height="24.1875" fill="white" transform="translate(0 0.90625)"/>
</clipPath>
</defs>
</svg>
