<svg xmlns="http://www.w3.org/2000/svg" width="48" height="48" viewBox="0 0 48 48" fill="none">
  <g clip-path="url(#clip0_2040_24788)">
    <mask id="mask0_2040_24788" style="mask-type:luminance" maskUnits="userSpaceOnUse" x="0" y="0" width="48" height="48">
      <path d="M47.5 0.97998H0.5V47.98H47.5V0.97998Z" fill="white"/>
    </mask>
    <g mask="url(#mask0_2040_24788)">
      <mask id="mask1_2040_24788" style="mask-type:luminance" maskUnits="userSpaceOnUse" x="0" y="-2" width="48" height="52">
        <path d="M47.57 -1.02002H0.5V49.98H47.57V-1.02002Z" fill="white"/>
      </mask>
      <g mask="url(#mask1_2040_24788)">
        <mask id="mask2_2040_24788" style="mask-type:luminance" maskUnits="userSpaceOnUse" x="5" y="-3" width="37" height="25">
          <path d="M9.43258 -2.01978L5.93555 15.4653L38.4168 21.9615L41.9138 4.4765L9.43258 -2.01978Z" fill="white"/>
        </mask>
        <g mask="url(#mask2_2040_24788)">
          <path d="M36.3501 32.2362C36.1802 32.4274 36.0315 32.6079 35.8722 32.7778C35.0651 33.6487 34.1411 34.3815 33.1322 35.0081C31.741 35.8789 30.2648 36.548 28.6823 37.0047C27.1743 37.4401 25.6237 37.6737 24.0519 37.7268C22.8518 37.7693 21.6624 37.6844 20.4729 37.4826C18.094 37.0684 15.885 36.2082 13.8565 34.9125C11.9555 33.7018 10.3306 32.2043 8.98183 30.3989C7.68616 28.6466 6.73034 26.7349 6.12499 24.6427C5.62584 22.9329 5.3922 21.1805 5.41344 19.3963C5.41344 18.6317 5.50902 17.8777 5.57274 17.113C5.62584 16.5714 5.74266 16.051 5.83824 15.5306C5.88073 15.3288 5.96569 15.1483 6.01879 14.9465C6.26305 14.0862 6.5498 13.2366 6.90027 12.4082C8.01539 9.78502 9.67214 7.54416 11.8705 5.71748C13.3043 4.52801 14.8761 3.56157 16.5965 2.85002C18.3382 2.12784 20.1437 1.69242 22.0235 1.53311C23.1173 1.43753 24.2006 1.43753 25.2945 1.53311C25.9636 1.59683 26.6326 1.69242 27.2911 1.83048C29.9568 2.40397 32.3676 3.50847 34.5553 5.13337C34.8527 5.35639 35.1501 5.59004 35.4368 5.8343C35.4793 5.86616 35.5111 5.87678 35.5642 5.8343C36.5519 5.20771 37.5396 4.58112 38.5379 3.96514C38.6122 3.91204 38.6866 3.86956 38.7928 3.80584C39.0795 7.58664 39.3344 11.3568 39.5574 15.127C39.5574 15.127 39.5362 15.1483 39.5256 15.1589C36.1165 13.4703 32.718 11.7816 29.2877 10.0718C30.1904 9.44518 31.0719 8.8292 31.964 8.21323C31.6985 8.03269 31.4436 7.85214 31.1887 7.68222C30.1161 6.98129 28.9797 6.45027 27.7584 6.07857C24.7529 5.15461 21.7686 5.19709 18.7949 6.24849C17.6904 6.64144 16.6603 7.16183 15.6832 7.82028C14.4937 8.62742 13.4529 9.59386 12.5502 10.709C11.5413 11.9409 10.766 13.311 10.2032 14.8084C9.99075 15.3819 9.81021 15.9766 9.68276 16.5714C9.22609 18.7379 9.26858 20.8832 9.81021 23.0285C10.1819 24.494 10.7979 25.8534 11.5944 27.1385C12.4759 28.551 13.5698 29.7829 14.8867 30.8025C16.0018 31.6627 17.2337 32.3318 18.5506 32.8203C19.1985 33.0539 19.8463 33.2451 20.5154 33.3938C22.3421 33.7974 24.1687 33.8823 26.0167 33.5531C27.6734 33.2451 29.2134 32.6504 30.6471 31.7901C31.2206 31.4397 31.7622 31.0573 32.3251 30.675C32.4738 30.5794 32.6012 30.5582 32.7605 30.6325C33.8969 31.1529 35.0439 31.6627 36.1802 32.1725C36.2121 32.1831 36.2439 32.2043 36.3077 32.2362H36.3501Z" fill="#CC2B02"/>
        </g>
        <mask id="mask3_2040_24788" style="mask-type:luminance" maskUnits="userSpaceOnUse" x="1" y="23" width="38" height="30">
          <path d="M32.4566 51.4563L2.36816 40.38L8.16132 24.6431L38.2498 35.7195L32.4566 51.4563Z" fill="white" stroke="white" stroke-width="1.06202"/>
        </mask>
        <g mask="url(#mask3_2040_24788)">
          <path d="M11.4667 14.128C11.6579 13.9687 11.8384 13.8094 12.0296 13.6714C12.9642 12.9386 13.9837 12.3545 15.0776 11.8978C16.5857 11.2606 18.1575 10.8251 19.7824 10.6127C21.3435 10.4109 22.9047 10.4322 24.4659 10.6127C25.6554 10.7614 26.8236 11.0269 27.9599 11.4093C30.2433 12.1845 32.293 13.374 34.0984 14.9777C35.787 16.4645 37.1677 18.1956 38.2085 20.1922C39.2174 22.1251 39.8652 24.1641 40.1413 26.32C40.3644 28.0936 40.3219 29.8566 40.0351 31.6195C39.9077 32.3736 39.7059 33.1064 39.5254 33.8498C39.3979 34.3702 39.1961 34.8693 39.0156 35.3791C38.9519 35.5703 38.835 35.7402 38.7501 35.9313C38.3784 36.7491 37.9642 37.535 37.4863 38.2997C35.9782 40.7211 34.0028 42.6752 31.539 44.1408C29.9353 45.0966 28.2361 45.7975 26.42 46.2436C24.5933 46.6896 22.7348 46.8383 20.855 46.7003C19.7611 46.6259 18.6885 46.456 17.6265 46.1905C16.968 46.0206 16.3308 45.8294 15.6936 45.5851C13.1554 44.6081 10.9357 43.1425 9.03471 41.199C8.7692 40.9335 8.52494 40.6467 8.27005 40.3706C8.22757 40.3281 8.20633 40.3175 8.15323 40.3387C7.08059 40.806 6.00795 41.2627 4.93531 41.73C4.85034 41.7618 4.76538 41.8043 4.65918 41.8468C4.96717 38.066 5.29639 34.3065 5.65748 30.5469C5.65748 30.5469 5.67872 30.5363 5.68934 30.5257C8.79044 32.724 11.8915 34.9224 15.0245 37.1314C14.0368 37.6093 13.0704 38.0766 12.0827 38.5545C12.3164 38.7776 12.5394 38.99 12.773 39.1918C13.7182 40.0414 14.7696 40.7529 15.9166 41.3158C18.7416 42.6964 21.7046 43.1106 24.7951 42.5265C25.9421 42.3141 27.0466 41.953 28.1086 41.4539C29.4043 40.8485 30.5831 40.0414 31.6452 39.0856C32.8346 38.0235 33.8117 36.7916 34.5976 35.4003C34.9056 34.8693 35.1711 34.3065 35.3835 33.733C36.1694 31.6726 36.4667 29.538 36.2543 27.329C36.1163 25.8209 35.7127 24.3872 35.1286 22.9959C34.4701 21.456 33.5887 20.0754 32.4417 18.8647C31.4752 17.8451 30.3601 16.9955 29.1282 16.3052C28.5334 15.9653 27.9068 15.6786 27.2696 15.4343C25.5279 14.744 23.7331 14.3829 21.8533 14.4254C20.1753 14.4679 18.5504 14.8183 16.9999 15.4556C16.3839 15.7104 15.7785 16.0078 15.1732 16.2946C15.0139 16.3689 14.8758 16.3583 14.7378 16.2733C13.6864 15.583 12.6456 14.9033 11.5942 14.2236C11.5623 14.2024 11.5305 14.1811 11.4774 14.1387L11.4667 14.128Z" fill="#CC2B02"/>
        </g>
        <path fill-rule="evenodd" clip-rule="evenodd" d="M3.42776 23.5379C1.96217 22.0829 1.04883 20.0863 1.04883 17.8773C1.04883 13.4593 4.68094 9.86963 9.16268 9.86963C13.6444 9.86963 17.2765 13.4487 17.2765 17.8773C17.2765 20.0863 16.3632 22.0935 14.8976 23.5379L9.16268 29.1985L3.42776 23.5379Z" fill="#3D7FFC"/>
        <path fill-rule="evenodd" clip-rule="evenodd" d="M1.63297 25.3432C-0.289295 23.4422 -1.5 20.7978 -1.5 17.8666C-1.5 12.0042 3.30034 7.31006 9.1627 7.31006C15.0251 7.31006 19.8254 12.0042 19.8254 17.8666C19.8254 20.7871 18.6147 23.4422 16.6924 25.3432L9.17332 32.7667L1.64359 25.3326L1.63297 25.3432ZM14.8976 23.5378C16.3632 22.0934 17.2766 20.0862 17.2766 17.8772C17.2766 13.4486 13.6444 9.86953 9.1627 9.86953C4.68097 9.86953 1.04885 13.4592 1.04885 17.8772C1.04885 20.0862 1.96219 22.0934 3.42778 23.5378L9.1627 29.1984L14.8976 23.5378Z" fill="#E6E6E6"/>
        <path fill-rule="evenodd" clip-rule="evenodd" d="M32.1026 32.034C30.637 30.579 29.7236 28.5824 29.7236 26.3734C29.7236 21.9554 33.3557 18.3657 37.8375 18.3657C42.3192 18.3657 45.9513 21.9448 45.9513 26.3734C45.9513 28.5824 45.038 30.5896 43.5724 32.034L37.8375 37.6945L32.1026 32.034Z" fill="white"/>
        <path fill-rule="evenodd" clip-rule="evenodd" d="M30.3078 33.8393C28.3855 31.9383 27.1748 29.2938 27.1748 26.3627C27.1748 20.5003 31.9751 15.8062 37.8375 15.8062C43.6999 15.8062 48.5002 20.5003 48.5002 26.3627C48.5002 29.2832 47.2895 31.9383 45.3672 33.8393L37.8481 41.2628L30.3184 33.8287L30.3078 33.8393ZM43.5724 32.0339C45.038 30.5895 45.9514 28.5823 45.9514 26.3733C45.9514 21.9447 42.3192 18.3656 37.8375 18.3656C33.3558 18.3656 29.7237 21.9553 29.7237 26.3733C29.7237 28.5823 30.637 30.5895 32.1026 32.0339L37.8375 37.6944L43.5724 32.0339Z" fill="#E6E6E6"/>
      </g>
    </g>
  </g>
  <defs>
    <clipPath id="clip0_2040_24788">
      <rect width="48" height="47" fill="white" transform="translate(0 0.97998)"/>
    </clipPath>
  </defs>
</svg>