<svg width="49" height="48" viewBox="0 0 49 48" fill="none" xmlns="http://www.w3.org/2000/svg">
<g filter="url(#filter0_d_2198_4538)">
<rect x="2.66663" y="1" width="44" height="44" rx="8" fill="white" shape-rendering="crispEdges"/>
<rect x="3.16663" y="1.5" width="43" height="43" rx="7.5" stroke="#EAECF0" shape-rendering="crispEdges"/>
<path d="M24.6667 35.5001C29.1921 35.5001 32.8606 31.942 32.8606 27.553C32.8606 23.164 29.1921 19.606 24.6667 19.606C20.1413 19.606 16.4727 23.164 16.4727 27.553C16.4727 31.942 20.1413 35.5001 24.6667 35.5001Z" fill="url(#paint0_linear_2198_4538)"/>
<path fill-rule="evenodd" clip-rule="evenodd" d="M7.38756 18.3595L11.7871 23.4134C11.9497 23.5988 12.1822 23.7134 12.4325 23.7313C12.6828 23.7493 12.9301 23.6692 13.1191 23.5089C20.2437 17.3132 29.0661 17.3132 36.2095 23.5089C36.3984 23.6692 36.6457 23.7493 36.8961 23.7313C37.1464 23.7134 37.3789 23.5988 37.5415 23.4134L41.9457 18.3595C42.2782 17.9771 42.23 17.4061 41.8378 17.0812C31.4957 8.30626 17.8329 8.30626 7.49544 17.0812C7.10329 17.4061 7.0551 17.9771 7.38756 18.3595Z" fill="#2684FF"/>
</g>
<defs>
<filter id="filter0_d_2198_4538" x="0.666626" y="0" width="48" height="48" filterUnits="userSpaceOnUse" color-interpolation-filters="sRGB">
<feFlood flood-opacity="0" result="BackgroundImageFix"/>
<feColorMatrix in="SourceAlpha" type="matrix" values="0 0 0 0 0 0 0 0 0 0 0 0 0 0 0 0 0 0 127 0" result="hardAlpha"/>
<feOffset dy="1"/>
<feGaussianBlur stdDeviation="1"/>
<feComposite in2="hardAlpha" operator="out"/>
<feColorMatrix type="matrix" values="0 0 0 0 0.0627451 0 0 0 0 0.0941176 0 0 0 0 0.156863 0 0 0 0.05 0"/>
<feBlend mode="normal" in2="BackgroundImageFix" result="effect1_dropShadow_2198_4538"/>
<feBlend mode="normal" in="SourceGraphic" in2="effect1_dropShadow_2198_4538" result="shape"/>
</filter>
<linearGradient id="paint0_linear_2198_4538" x1="24.6667" y1="32.7661" x2="24.6667" y2="18.6871" gradientUnits="userSpaceOnUse">
<stop stop-color="#2684FF"/>
<stop offset="0.82" stop-color="#0052CC"/>
</linearGradient>
</defs>
</svg>
